<svg xmlns="http://www.w3.org/2000/svg" width="199.976" height="73.384" viewBox="0 0 1011 371">
  <defs>
    <style>
      .cls-1 {
        fill: #fff;
        fill-rule: evenodd;
      }
    </style>
  </defs>
  <path id="Color_Fill_1" data-name="Color Fill 1" class="cls-1" d="M92,8h14V26H92V8ZM403,25h18V44H403V25ZM188,26h16V42H188V26ZM124,42h14V61H124V42Zm48,16h15V77H172V58Zm199,0h17V77H371V58ZM254,59h17V75H254V59Zm69,0h15V77H323V59ZM152,62V77h18V92h15v16h19V93h13v32h25v18h19V125h47V110h16V99h18V76h13v35H338v32H320v40H300v19h21v60h18v35h14v29H340V309H308V294H291V279H257V261H241v14H187v20H157V278h16V222h16V202H173V130H156V94H140c0.08-10.8.686-23.816-1-33h1C141.934,62.783,148.393,62.1,152,62Zm38,12h14V92H190V74Zm30,1h15V93H220V75Zm70,17h15v17H290V92Zm-53,2h14v16H237V94Zm134,29h17v21H371V123Zm481,57a11.966,11.966,0,0,0-6-10c-2.541-2.721-14.018-3.852-17-1-2.927.684-3.274,1.113-4,4h-1v4l3,2v1h2v1l12,2v1h5l26,8q0.5,1,1,2l4,1,4,5,3,2q0.5,2,1,4h1v2h1c0.891,2.081,2.023,12.667,1,16h-1v4h-1v2h-1q-0.5,2-1,4l-2,1v2l-2,1-4,5h-2q-0.5,1-1,2l-6,2v1l-6,1v1l-10,1v1c-4.486,1.259-21.854-.079-25-1h-6v-1h-5v-1h-3v-1h-3c-11.712-5.184-18.52-16.412-21-31l33-2c0.509,6.559,3.443,9.574,7,13q0.5,1,1,2h2v1l14,1v-1h4c1.773-2.666,3.99-2.3,5-6,2.026-2.126.524-5.538,0-8l-8-5h-3v-1h-4v-1h-4v-1h-5v-1l-8-1v-1l-9-2v-1l-6-2v-1h-2q-0.5-1-1-2h-2l-3-4-2-1v-2l-2-1q-0.5-2.5-1-5h-1c-1.665-4.95-.039-15.224,2-19h1v-2l3-2,5-6h2q0.5-1,1-2l5-1v-1h3v-1h3v-1h5c10.479-3.048,26.445-2.264,36,1h4v1h3v1h2v1h2q0.5,1,1,2h2q0.5,1,1,2l6,5q1,3,2,6h1v3h1c0.774,2.412.144,4.076,1,6h-1c-1.942,1.718-7.459.976-11,1ZM10,150H57l24,1v1l6,1v1l4,1,1,2h2l3,4,2,1v2h1q0.5,2,1,4h1v3h1v5h1c1.57,5.5-2.334,19.365-4,22l-2,1v2l-2,1-3,4H91l-1,2c-10.107,6.353-28.6,5.205-45,5v37H10V150Zm147,0V250H122V151C129.636,148.184,147.176,149.95,157,150Zm177,0h91v22H369v15h52v21H369v19h58v23H334V150Zm111,0h34v75h53v25H445V150Zm103,0h39c6.838,0,15.771-.5,21,1h7v1h4v1h3c18.728,8.188,27.09,23.8,27,51-0.02,6.007-1.086,15.623-3,20h-1q-1,3-2,6l-2,1v2l-3,2c-3.887,3.959-7.588,8.625-13,11-15.828,6.947-54.267,4.18-77,4V150Zm119,0h34v67h1q1,3,2,6c2.5,1.081,6.312,2.99,8,5a75.172,75.172,0,0,0,19-2c2.109-3.606,5.488-5.293,7-10V150h34v68h-1v4h-1q-0.5,3-1,6h-1q-0.5,2-1,4h-1v2l-4,3c-3.915,3.941-7.575,8.62-13,11l-6,1v1l-10,1c-3.7,1.058-18.881,2.455-24,1v-1h-8v-1h-5v-1l-6-1v-1l-4-1v-1h-2l-2-3h-2q-0.5-1-1-2l-4-3v-2l-3-2q-0.5-2-1-4h-1v-3c-3.083-8.119-3-15.43-3-27V150Zm334,0v25H966v75H932V175H897V151c7.345-2.682,23.553-1,33-1h71Zm-804,3v33h15v16h18v14H213v16H198v22h37V221h12v15h15v18h38V220H284V204H268V185h16V171h18V153H260v32h-9V168H233V153H197ZM45,171v22c9.408,0.333,22.182.071,24-7h1v-8H69C64.876,169.585,57.365,170.509,45,171Zm537,56h19c2.219-.722,4.215-2.375,7-3l5-7v-3h1v-9h1c0.832-3.034-.565-7.482-1-9v-8h-1q-0.5-3-1-6l-2-1v-2l-2-1v-1h-2q-0.5-1-1-2h-3c-3.35-3.191-13.642-2.1-20-2-1.591,4.333-1,12.089-1,18v34C582.139,226.139,581.4,225,582,227ZM106,278h18v18H106V278Zm300,2h16v16H406V280ZM141,295h14v16H141V295Zm101,0h15v17H243v16H227V312h15V295Zm-72,15h17v17H170V310Zm-48,1h17v19H122V311Zm233,16h15v19H355V327Zm-48,2h13v16H307V329Zm67,15h16v19H374V344Z"/>
</svg>
