<?xml version="1.0" encoding="utf-8"?>
<!-- Generator: Adobe Illustrator 26.0.2, SVG Export Plug-In . SVG Version: 6.00 Build 0)  -->
<svg version="1.1" id="fulllogo_1_" xmlns="http://www.w3.org/2000/svg" xmlns:xlink="http://www.w3.org/1999/xlink" x="0px"
	 y="0px" viewBox="0 0 270.96 132.48" style="enable-background:new 0 0 270.96 132.48;" xml:space="preserve">
<style type="text/css">
	.st0{fill:#FFFFFF;}
	.st1{fill-rule:evenodd;clip-rule:evenodd;fill:#FFFFFF;}
</style>
<g id="www.pixeldust.tv">
</g>
<g id="Animation_vfx_design">
	<g id="Animation">
	</g>
	<g id="Design">
	</g>
	<g id="Visual_fx">
	</g>
	<g id="_x2E__1_">
	</g>
	<g id="_x2E_">
	</g>
</g>
<g id="logo_1_">
	<g id="PI___ELDUST">
		<g>
			<g>
				<path class="st0" d="M15.6,42.82h13.53c2.95,0,5.16,0.64,6.62,1.91c1.47,1.27,2.2,3.09,2.2,5.44c0,2.42-0.8,4.31-2.4,5.67
					s-4.04,2.04-7.32,2.04h-4.46v8.89H15.6V42.82z M23.78,53.03h2c1.57,0,2.67-0.25,3.31-0.74c0.63-0.5,0.95-1.13,0.95-1.9
					c0-0.75-0.28-1.39-0.83-1.91c-0.55-0.52-1.59-0.78-3.11-0.78h-2.32V53.03z"/>
				<path class="st0" d="M42.54,42.82h8.16v23.95h-8.16V42.82z"/>
				<path class="st0" d="M93.35,42.82h21.82v5.11h-13.66v3.81h12.67v4.89h-12.67v4.72h14.06v5.42H93.35V42.82z"/>
				<path class="st0" d="M119.95,42.82h8.14v18.06h12.71v5.9h-20.85V42.82z"/>
				<path class="st0" d="M144.61,42.82h12.1c2.38,0,4.31,0.29,5.78,0.88s2.68,1.43,3.64,2.53s1.65,2.38,2.08,3.84
					c0.43,1.46,0.65,3.01,0.65,4.64c0,2.56-0.32,4.54-0.96,5.96c-0.64,1.41-1.53,2.59-2.67,3.55c-1.14,0.95-2.36,1.59-3.67,1.9
					c-1.79,0.44-3.4,0.65-4.85,0.65h-12.1V42.82z M152.76,48.24v13.09h2c1.7,0,2.91-0.17,3.63-0.52c0.72-0.34,1.28-0.94,1.69-1.8
					c0.41-0.85,0.61-2.24,0.61-4.16c0-2.54-0.46-4.28-1.37-5.21c-0.91-0.94-2.42-1.41-4.53-1.41H152.76z"/>
				<path class="st0" d="M190.28,42.82h8.12v14.27c0,1.42-0.24,2.75-0.73,4.01s-1.25,2.36-2.28,3.3c-1.04,0.94-2.12,1.6-3.26,1.98
					c-1.58,0.53-3.48,0.8-5.7,0.8c-1.28,0-2.68-0.08-4.2-0.25c-1.52-0.16-2.78-0.49-3.8-0.97c-1.02-0.48-1.95-1.17-2.79-2.07
					c-0.84-0.89-1.42-1.81-1.73-2.76c-0.5-1.52-0.75-2.87-0.75-4.05V42.82h8.12v14.61c0,1.31,0.4,2.33,1.2,3.06
					c0.8,0.73,1.9,1.1,3.32,1.1c1.4,0,2.5-0.36,3.3-1.09c0.8-0.72,1.2-1.75,1.2-3.08V42.82z"/>
				<path class="st0" d="M202.38,58.85l7.75-0.44c0.17,1.14,0.51,2.02,1.02,2.61c0.84,0.97,2.04,1.45,3.6,1.45
					c1.16,0,2.06-0.25,2.69-0.74c0.63-0.5,0.94-1.07,0.94-1.72c0-0.62-0.3-1.18-0.9-1.67s-1.99-0.95-4.17-1.39
					c-3.57-0.73-6.12-1.7-7.64-2.91c-1.53-1.21-2.3-2.75-2.3-4.62c0-1.23,0.39-2.39,1.18-3.49c0.78-1.09,1.96-1.96,3.54-2.58
					c1.58-0.63,3.74-0.94,6.48-0.94c3.37,0,5.93,0.57,7.7,1.71c1.77,1.14,2.82,2.95,3.15,5.43l-7.67,0.41
					c-0.2-1.08-0.63-1.86-1.29-2.35s-1.55-0.74-2.71-0.74c-0.95,0-1.66,0.18-2.14,0.55c-0.48,0.37-0.72,0.81-0.72,1.33
					c0,0.38,0.2,0.72,0.59,1.03c0.38,0.32,1.29,0.61,2.73,0.88c3.56,0.7,6.11,1.4,7.65,2.12c1.54,0.71,2.66,1.6,3.36,2.66
					s1.05,2.24,1.05,3.55c0,1.54-0.47,2.95-1.4,4.25c-0.93,1.3-2.24,2.28-3.92,2.95c-1.68,0.67-3.79,1-6.34,1
					c-4.48,0-7.58-0.78-9.31-2.35C203.59,63.26,202.61,61.27,202.38,58.85z"/>
				<path class="st0" d="M228.53,42.82h24.75v5.92h-8.3v18.04h-8.14V48.73h-8.3V42.82z"/>
			</g>
		</g>
	</g>
	<g id="_x0D_STUDIOS">
	</g>
	<g>
		<g>
			<path class="st1" d="M35.17,8.78c0.08,0,0.16,0,0.24,0c0.32,0,0.64,0,0.96,0c0.16,0,0.32,0,0.48,0c0.32,0,0.64,0,0.96,0
				c0.16,0,0.32,0,0.48,0c0.08,0,0.16,0,0.24,0c0,0.16,0,0.32,0,0.48c0,0.16,0,0.32,0,0.48c0,0.08,0,0.16,0,0.24
				c0,0.32,0,0.64,0,0.96c0,0.64,0,1.28,0,1.92c-0.32,0-0.64,0-0.96,0c-0.16,0-0.32,0-0.48,0c-0.08,0-0.16,0-0.24,0
				c-0.32,0-0.64,0-0.96,0c-0.16,0-0.32,0-0.48,0c-0.08,0-0.16,0-0.24,0c0-0.32,0-0.64,0-0.96c0-0.16,0-0.32,0-0.48
				c0-0.08,0-0.16,0-0.24c0-0.32,0-0.64,0-0.96c0-0.16,0-0.32,0-0.48c0-0.08,0-0.16,0-0.24c0-0.16,0-0.32,0-0.48
				C35.17,8.94,35.17,8.86,35.17,8.78z"/>
			<path class="st1" d="M109.81,12.86c0.08,0,0.16,0,0.24,0c0.08,0,0.16,0,0.24,0c0.08,0,0.16,0,0.24,0c0.16,0,0.32,0,0.48,0
				c0.08,0,0.16,0,0.24,0c0.32,0,0.64,0,0.96,0c0.64,0,1.28,0,1.92,0c0,0.16,0,0.32,0,0.48c0,0.16,0,0.32,0,0.48
				c0,0.08,0,0.16,0,0.24c0,0.32,0,0.64,0,0.96c0,0.16,0,0.32,0,0.48c0,0.16,0,0.32,0,0.48c0,0.08,0,0.16,0,0.24
				c0,0.32,0,0.64,0,0.96c-0.16,0-0.32,0-0.48,0c-0.16,0-0.32,0-0.48,0c-0.08,0-0.16,0-0.24,0c-0.32,0-0.64,0-0.96,0
				c-0.16,0-0.32,0-0.48,0c-0.16,0-0.32,0-0.48,0c-0.08,0-0.16,0-0.24,0c-0.32,0-0.64,0-0.96,0c0-0.64,0-1.28,0-1.92
				c0-0.32,0-0.64,0-0.96c0-0.16,0-0.32,0-0.48c0-0.08,0-0.16,0-0.24c0-0.16,0-0.32,0-0.48C109.81,13.02,109.81,12.94,109.81,12.86z
				"/>
			<path class="st1" d="M58.21,13.1c1.28,0,2.56,0,3.84,0c0,0.64,0,1.28,0,1.92c0,0.32,0,0.64,0,0.96c0,0.16,0,0.32,0,0.48
				c0,0.08,0,0.16,0,0.24c-1.28,0-2.56,0-3.84,0c0-0.16,0-0.32,0-0.48c0-0.32,0-0.64,0-0.96c0-0.16,0-0.32,0-0.48
				c0-0.32,0-0.64,0-0.96c0-0.16,0-0.32,0-0.48C58.21,13.27,58.21,13.18,58.21,13.1z"/>
			<path class="st1" d="M42.85,16.94c0.08,0,0.16,0,0.24,0c0.32,0,0.64,0,0.96,0c0.16,0,0.32,0,0.48,0c0.32,0,0.64,0,0.96,0
				c0.16,0,0.32,0,0.48,0c0.08,0,0.16,0,0.24,0c0,0.16,0,0.32,0,0.48c0,0.16,0,0.32,0,0.48c0,0.08,0,0.16,0,0.24
				c0,0.32,0,0.64,0,0.96c0,0.16,0,0.32,0,0.48c0,0.16,0,0.32,0,0.48c0,0.08,0,0.16,0,0.24c0,0.32,0,0.64,0,0.96
				c-0.32,0-0.64,0-0.96,0c-0.16,0-0.32,0-0.48,0c-0.08,0-0.16,0-0.24,0c-0.32,0-0.64,0-0.96,0c-0.16,0-0.32,0-0.48,0
				c-0.08,0-0.16,0-0.24,0c0-0.64,0-1.28,0-1.92c0-0.32,0-0.64,0-0.96c0-0.16,0-0.32,0-0.48c0-0.08,0-0.16,0-0.24
				c0-0.16,0-0.32,0-0.48C42.85,17.1,42.85,17.02,42.85,16.94z"/>
			<path class="st1" d="M54.37,20.78c0.16,0,0.32,0,0.48,0c0.32,0,0.64,0,0.96,0c0.16,0,0.32,0,0.48,0c0.32,0,0.64,0,0.96,0
				c0.16,0,0.32,0,0.48,0c0.08,0,0.16,0,0.24,0c0,0.16,0,0.32,0,0.48c0,0.16,0,0.32,0,0.48c0,0.08,0,0.16,0,0.24
				c0,0.32,0,0.64,0,0.96c0,0.16,0,0.32,0,0.48c0,0.16,0,0.32,0,0.48c0,0.08,0,0.16,0,0.24c0,0.32,0,0.64,0,0.96
				c-0.64,0-1.28,0-1.92,0c-0.32,0-0.64,0-0.96,0c-0.16,0-0.32,0-0.48,0c-0.08,0-0.16,0-0.24,0c0-0.16,0-0.32,0-0.48
				c0-0.16,0-0.32,0-0.48c0-0.08,0-0.16,0-0.24c0-0.32,0-0.64,0-0.96c0-0.16,0-0.32,0-0.48c0-0.16,0-0.32,0-0.48
				c0-0.08,0-0.16,0-0.24C54.37,21.42,54.37,21.1,54.37,20.78z"/>
			<path class="st1" d="M102.13,20.78c0.08,0,0.16,0,0.24,0c0.16,0,0.32,0,0.48,0c0.16,0,0.32,0,0.48,0c0.32,0,0.64,0,0.96,0
				c0.64,0,1.28,0,1.92,0c0,0.16,0,0.32,0,0.48c0,0.16,0,0.32,0,0.48c0,0.08,0,0.16,0,0.24c0,0.32,0,0.64,0,0.96
				c0,0.16,0,0.32,0,0.48c0,0.16,0,0.32,0,0.48c0,0.08,0,0.16,0,0.24c0,0.32,0,0.64,0,0.96c-0.16,0-0.32,0-0.48,0
				c-0.16,0-0.32,0-0.48,0c-0.08,0-0.16,0-0.24,0c-0.32,0-0.64,0-0.96,0c-0.64,0-1.28,0-1.92,0c0-0.64,0-1.28,0-1.92
				c0-0.32,0-0.64,0-0.96c0-0.16,0-0.32,0-0.48c0-0.08,0-0.16,0-0.24c0-0.16,0-0.32,0-0.48C102.13,20.94,102.13,20.86,102.13,20.78z
				"/>
			<path class="st1" d="M74.05,21.02c0.08,0,0.16,0,0.24,0c0.64,0,1.28,0,1.92,0c0.64,0,1.28,0,1.92,0c0,0.64,0,1.28,0,1.92
				c0,0.32,0,0.64,0,0.96c0,0.16,0,0.32,0,0.48c0,0.08,0,0.16,0,0.24c-0.16,0-0.32,0-0.48,0c-0.16,0-0.32,0-0.48,0
				c-0.08,0-0.16,0-0.24,0c-0.32,0-0.64,0-0.96,0c-0.64,0-1.28,0-1.92,0c0-0.16,0-0.32,0-0.48c0-0.32,0-0.64,0-0.96
				c0-0.16,0-0.32,0-0.48c0-0.32,0-0.64,0-0.96c0-0.16,0-0.32,0-0.48C74.05,21.18,74.05,21.1,74.05,21.02z"/>
			<path class="st1" d="M90.61,21.02c0.08,0,0.16,0,0.24,0c0.32,0,0.64,0,0.96,0c0.16,0,0.32,0,0.48,0c0.08,0,0.16,0,0.24,0
				c0.32,0,0.64,0,0.96,0c0.16,0,0.32,0,0.48,0c0.08,0,0.16,0,0.24,0c0,0.16,0,0.32,0,0.48c0,0.16,0,0.32,0,0.48
				c0,0.08,0,0.16,0,0.24c0,0.32,0,0.64,0,0.96c0,0.64,0,1.28,0,1.92c-0.64,0-1.28,0-1.92,0c-0.32,0-0.64,0-0.96,0
				c-0.16,0-0.32,0-0.48,0c-0.08,0-0.16,0-0.24,0c0-0.32,0-0.64,0-0.96c0-0.16,0-0.32,0-0.48c0-0.08,0-0.16,0-0.24
				c0-0.32,0-0.64,0-0.96c0-0.16,0-0.32,0-0.48c0-0.08,0-0.16,0-0.24c0-0.16,0-0.32,0-0.48C90.61,21.18,90.61,21.1,90.61,21.02z"/>
			<path class="st1" d="M58.69,24.62c0.08,0,0.16,0,0.24,0c0.32,0,0.64,0,0.96,0c0.16,0,0.32,0,0.48,0c0.32,0,0.64,0,0.96,0
				c0.16,0,0.32,0,0.48,0c0.08,0,0.16,0,0.24,0c0,0.16,0,0.32,0,0.48c0,0.16,0,0.32,0,0.48c0,0.08,0,0.16,0,0.24
				c0,0.32,0,0.64,0,0.96c0,0.64,0,1.28,0,1.92c-0.32,0-0.64,0-0.96,0c-0.16,0-0.32,0-0.48,0c-0.08,0-0.16,0-0.24,0
				c-0.32,0-0.64,0-0.96,0c-0.16,0-0.32,0-0.48,0c-0.08,0-0.16,0-0.24,0c0-0.32,0-0.64,0-0.96c0-0.16,0-0.32,0-0.48
				c0-0.08,0-0.16,0-0.24c0-0.32,0-0.64,0-0.96c0-0.16,0-0.32,0-0.48c0-0.08,0-0.16,0-0.24c0-0.16,0-0.32,0-0.48
				C58.69,24.78,58.69,24.7,58.69,24.62z"/>
			<path class="st1" d="M65.89,24.86c0.08,0,0.16,0,0.24,0c0.32,0,0.64,0,0.96,0c0.16,0,0.32,0,0.48,0c0.08,0,0.16,0,0.24,0
				c0.32,0,0.64,0,0.96,0c0.16,0,0.32,0,0.48,0c0.08,0,0.16,0,0.24,0c0,0.16,0,0.32,0,0.48c0,0.16,0,0.32,0,0.48
				c0,0.08,0,0.16,0,0.24c0,0.32,0,0.64,0,0.96c0,0.64,0,1.28,0,1.92c-0.64,0-1.28,0-1.92,0c-0.32,0-0.64,0-0.96,0
				c-0.16,0-0.32,0-0.48,0c-0.08,0-0.16,0-0.24,0c0-0.32,0-0.64,0-0.96c0-0.16,0-0.32,0-0.48c0-0.08,0-0.16,0-0.24
				c0-0.32,0-0.64,0-0.96c0-0.16,0-0.32,0-0.48c0-0.08,0-0.16,0-0.24c0-0.16,0-0.32,0-0.48C65.89,25.02,65.89,24.94,65.89,24.86z"/>
			<path class="st1" d="M82.69,28.94c0.08,0,0.16,0,0.24,0c0.32,0,0.64,0,0.96,0c0.16,0,0.32,0,0.48,0c0.08,0,0.16,0,0.24,0
				c0.32,0,0.64,0,0.96,0c0.16,0,0.32,0,0.48,0c0.08,0,0.16,0,0.24,0c0,1.28,0,2.56,0,3.84c-0.64,0-1.28,0-1.92,0
				c-0.32,0-0.64,0-0.96,0c-0.16,0-0.32,0-0.48,0c-0.08,0-0.16,0-0.24,0C82.69,31.5,82.69,30.23,82.69,28.94z"/>
			<path class="st1" d="M69.97,29.42c0.08,0,0.16,0,0.24,0c0.16,0,0.32,0,0.48,0c0.16,0,0.32,0,0.48,0c0.16,0,0.32,0,0.48,0
				c0.32,0,0.64,0,0.96,0c0.16,0,0.32,0,0.48,0c0.08,0,0.16,0,0.24,0c0,0.64,0,1.28,0,1.92c0,0.32,0,0.64,0,0.96
				c0,0.16,0,0.32,0,0.48c0,0.08,0,0.16,0,0.24c-0.32,0-0.64,0-0.96,0c-0.16,0-0.32,0-0.48,0c-0.08,0-0.16,0-0.24,0
				c-0.32,0-0.64,0-0.96,0c-0.16,0-0.32,0-0.48,0c-0.08,0-0.16,0-0.24,0c0-0.16,0-0.32,0-0.48c0-0.32,0-0.64,0-0.96
				c0-0.16,0-0.32,0-0.48c0-0.32,0-0.64,0-0.96c0-0.16,0-0.32,0-0.48C69.97,29.58,69.97,29.5,69.97,29.42z"/>
			<path class="st1" d="M102.13,36.38c0.08,0,0.16,0,0.24,0c0.08,0,0.16,0,0.24,0c0.08,0,0.16,0,0.24,0c0.16,0,0.32,0,0.48,0
				c0.32,0,0.64,0,0.96,0c0.64,0,1.28,0,1.92,0c0,0.16,0,0.32,0,0.48c0,0.16,0,0.32,0,0.48c0,0.08,0,0.16,0,0.24
				c0,0.16,0,0.32,0,0.48c0,0.08,0,0.16,0,0.24c0,0.16,0,0.32,0,0.48c0,0.16,0,0.32,0,0.48c0,0.16,0,0.32,0,0.48
				c0,0.08,0,0.16,0,0.24c0,0.16,0,0.32,0,0.48c0,0.08,0,0.16,0,0.24c0,0.16,0,0.32,0,0.48c-0.16,0-0.32,0-0.48,0
				c-0.16,0-0.32,0-0.48,0c-0.08,0-0.16,0-0.24,0c-0.32,0-0.64,0-0.96,0c-0.64,0-1.28,0-1.92,0c0-0.16,0-0.32,0-0.48
				c0-0.16,0-0.32,0-0.48c0-0.08,0-0.16,0-0.24c0-0.32,0-0.64,0-0.96c0-0.64,0-1.28,0-1.92c0-0.16,0-0.32,0-0.48
				C102.13,36.54,102.13,36.46,102.13,36.38z"/>
			<path class="st1" d="M38.53,73.58c0.08,0,0.16,0,0.24,0c0.08,0,0.16,0,0.24,0c0.08,0,0.16,0,0.24,0c0.16,0,0.32,0,0.48,0
				c0.08,0,0.16,0,0.24,0c0.32,0,0.64,0,0.96,0c0.64,0,1.28,0,1.92,0c0,0.16,0,0.32,0,0.48c0,0.16,0,0.32,0,0.48
				c0,0.08,0,0.16,0,0.24c0,0.32,0,0.64,0,0.96c0,0.64,0,1.28,0,1.92c-0.16,0-0.32,0-0.48,0c-0.16,0-0.32,0-0.48,0
				c-0.08,0-0.16,0-0.24,0c-0.32,0-0.64,0-0.96,0c-0.16,0-0.32,0-0.48,0c-0.16,0-0.32,0-0.48,0c-0.08,0-0.16,0-0.24,0
				c-0.32,0-0.64,0-0.96,0c0-0.32,0-0.64,0-0.96c0-0.16,0-0.32,0-0.48c0-0.08,0-0.16,0-0.24c0-0.32,0-0.64,0-0.96
				c0-0.16,0-0.32,0-0.48c0-0.08,0-0.16,0-0.24c0-0.16,0-0.32,0-0.48C38.53,73.74,38.53,73.66,38.53,73.58z"/>
			<path class="st1" d="M110.52,74.06c1.28,0,2.56,0,3.84,0c0,0.64,0,1.28,0,1.92c0,0.32,0,0.64,0,0.96c0,0.16,0,0.32,0,0.48
				c0,0.08,0,0.16,0,0.24c-1.28,0-2.56,0-3.84,0c0-0.16,0-0.32,0-0.48c0-0.32,0-0.64,0-0.96c0-0.16,0-0.32,0-0.48
				c0-0.32,0-0.64,0-0.96c0-0.16,0-0.32,0-0.48C110.52,74.22,110.52,74.14,110.52,74.06z"/>
			<path class="st1" d="M46.93,77.66c0.08,0,0.16,0,0.24,0c0.32,0,0.64,0,0.96,0c0.16,0,0.32,0,0.48,0c0.32,0,0.64,0,0.96,0
				c0.16,0,0.32,0,0.48,0c0.08,0,0.16,0,0.24,0c0,0.64,0,1.28,0,1.92c0,0.32,0,0.64,0,0.96c0,0.16,0,0.32,0,0.48
				c0,0.08,0,0.16,0,0.24c-0.32,0-0.64,0-0.96,0c-0.16,0-0.32,0-0.48,0c-0.08,0-0.16,0-0.24,0c-0.32,0-0.64,0-0.96,0
				c-0.16,0-0.32,0-0.48,0c-0.08,0-0.16,0-0.24,0c0-0.16,0-0.32,0-0.48c0-0.32,0-0.64,0-0.96c0-0.16,0-0.32,0-0.48
				c0-0.32,0-0.64,0-0.96c0-0.16,0-0.32,0-0.48C46.93,77.82,46.93,77.74,46.93,77.66z"/>
			<path class="st1" d="M71.17,77.66c0.08,0,0.16,0,0.24,0c0.32,0,0.64,0,0.96,0c0.16,0,0.32,0,0.48,0c0.08,0,0.16,0,0.24,0
				c0.32,0,0.64,0,0.96,0c0.16,0,0.32,0,0.48,0c0.08,0,0.16,0,0.24,0c0,1.28,0,2.56,0,3.84c-0.64,0-1.28,0-1.92,0
				c-0.32,0-0.64,0-0.96,0c-0.16,0-0.32,0-0.48,0c-0.08,0-0.16,0-0.24,0C71.17,80.22,71.17,78.95,71.17,77.66z"/>
			<path class="st1" d="M53.89,81.27c0.16,0,0.32,0,0.48,0c0.64,0,1.28,0,1.92,0c0.32,0,0.64,0,0.96,0c0.16,0,0.32,0,0.48,0
				c0.08,0,0.16,0,0.24,0c0,1.28,0,2.56,0,3.84c-0.16,0-0.32,0-0.48,0c-0.16,0-0.32,0-0.48,0c-0.08,0-0.16,0-0.24,0
				c-0.32,0-0.64,0-0.96,0c-0.64,0-1.28,0-1.92,0C53.89,83.82,53.89,82.54,53.89,81.27z"/>
			<path class="st1" d="M42.37,81.51c0.08,0,0.16,0,0.24,0c0.32,0,0.64,0,0.96,0c0.32,0,0.64,0,0.96,0c0.64,0,1.28,0,1.92,0
				c0,0.16,0,0.32,0,0.48c0,0.16,0,0.32,0,0.48c0,0.08,0,0.16,0,0.24c0,0.32,0,0.64,0,0.96c0,0.16,0,0.32,0,0.48
				c0,0.16,0,0.32,0,0.48c0,0.08,0,0.16,0,0.24c0,0.32,0,0.64,0,0.96c-0.16,0-0.32,0-0.48,0c-0.16,0-0.32,0-0.48,0
				c-0.08,0-0.16,0-0.24,0c-0.32,0-0.64,0-0.96,0c-0.64,0-1.28,0-1.92,0c0-0.64,0-1.28,0-1.92c0-0.32,0-0.64,0-0.96
				c0-0.16,0-0.32,0-0.48c0-0.08,0-0.16,0-0.24c0-0.16,0-0.32,0-0.48C42.37,81.66,42.37,81.58,42.37,81.51z"/>
			<path class="st1" d="M67.57,81.74c1.28,0,2.56,0,3.84,0c0,0.64,0,1.28,0,1.92c0,0.32,0,0.64,0,0.96c0,0.16,0,0.32,0,0.48
				c0,0.08,0,0.16,0,0.24c-1.28,0-2.56,0-3.84,0c0-0.16,0-0.32,0-0.48c0-0.32,0-0.64,0-0.96c0-0.16,0-0.32,0-0.48
				c0-0.32,0-0.64,0-0.96c0-0.16,0-0.32,0-0.48C67.57,81.9,67.57,81.82,67.57,81.74z"/>
			<path class="st1" d="M98.29,85.35c0.16,0,0.32,0,0.48,0c0.32,0,0.64,0,0.96,0c0.16,0,0.32,0,0.48,0c0.32,0,0.64,0,0.96,0
				c0.16,0,0.32,0,0.48,0c0.08,0,0.16,0,0.24,0c0,0.16,0,0.32,0,0.48c0,0.16,0,0.32,0,0.48c0,0.08,0,0.16,0,0.24
				c0,0.32,0,0.64,0,0.96c0,0.16,0,0.32,0,0.48c0,0.16,0,0.32,0,0.48c0,0.08,0,0.16,0,0.24c0,0.32,0,0.64,0,0.96
				c-0.64,0-1.28,0-1.92,0c-0.32,0-0.64,0-0.96,0c-0.16,0-0.32,0-0.48,0c-0.08,0-0.16,0-0.24,0c0-0.16,0-0.32,0-0.48
				c0-0.16,0-0.32,0-0.48c0-0.08,0-0.16,0-0.24c0-0.32,0-0.64,0-0.96c0-0.16,0-0.32,0-0.48c0-0.16,0-0.32,0-0.48
				c0-0.08,0-0.16,0-0.24C98.29,85.98,98.29,85.66,98.29,85.35z"/>
			<path class="st1" d="M86.77,85.82c0.08,0,0.16,0,0.24,0c0.08,0,0.16,0,0.24,0s0.16,0,0.24,0c0.32,0,0.64,0,0.96,0
				c0.16,0,0.32,0,0.48,0c0.08,0,0.16,0,0.24,0c0.16,0,0.32,0,0.48,0c0.08,0,0.16,0,0.24,0c0,0.64,0,1.28,0,1.92
				c0,0.32,0,0.64,0,0.96c0,0.16,0,0.32,0,0.48c0,0.08,0,0.16,0,0.24c-0.32,0-0.64,0-0.96,0c-0.16,0-0.32,0-0.48,0
				c-0.08,0-0.16,0-0.24,0c-0.16,0-0.32,0-0.48,0c-0.08,0-0.16,0-0.24,0c-0.16,0-0.32,0-0.48,0c-0.08,0-0.16,0-0.24,0
				c0-0.16,0-0.32,0-0.48c0-0.32,0-0.64,0-0.96c0-0.16,0-0.32,0-0.48c0-0.32,0-0.64,0-0.96c0-0.16,0-0.32,0-0.48
				C86.77,85.98,86.77,85.9,86.77,85.82z"/>
			<path class="st1" d="M102.85,89.43c1.28,0,2.56,0,3.84,0c0,0.16,0,0.32,0,0.48c0,0.16,0,0.32,0,0.48c0,0.08,0,0.16,0,0.24
				c0,0.32,0,0.64,0,0.96c0,0.16,0,0.32,0,0.48c0,0.16,0,0.32,0,0.48c0,0.08,0,0.16,0,0.24c0,0.32,0,0.64,0,0.96
				c-1.28,0-2.56,0-3.84,0c0-0.16,0-0.32,0-0.48c0-0.16,0-0.32,0-0.48c0-0.08,0-0.16,0-0.24c0-0.32,0-0.64,0-0.96
				c0-0.16,0-0.32,0-0.48c0-0.16,0-0.32,0-0.48c0-0.08,0-0.16,0-0.24C102.85,90.06,102.85,89.74,102.85,89.43z"/>
			<path class="st1" d="M46.45,21.75c0.03-0.05-0.04-0.2,0-0.24c0.01-0.01,0.23-0.01,0.24,0c0.01,0.02-0.01,0.24,0,0.24
				c0.08,0.01,0.16,0,0.24,0c0.08,0,0.16,0,0.24,0c0.08,0,0.16,0,0.24,0c0.16,0,0.32,0,0.48,0c0.32,0,0.64,0,0.96,0
				c0.16,0,0.32,0,0.48,0c0.08,0,0.16,0,0.24,0c0,0.64,0,1.28,0,1.92c0,0.32,0,0.64,0,0.96c0,0.16,0,0.32,0,0.48
				c0,0.08,0,0.16,0,0.24c0.16,0,0.32,0,0.48,0c0.16,0,0.32,0,0.48,0c0.08,0,0.16,0,0.24,0c0.32,0,0.64,0,0.96,0
				c0.16,0,0.32,0,0.48,0c0.08,0,0.16,0,0.24,0c0.16,0,0.32,0,0.48,0c0.32,0,0.64,0,0.96,0c0,0.64,0,1.28,0,1.92
				c0,0.32,0,0.64,0,0.96c0,0.16,0,0.32,0,0.48c0,0.08,0,0.16,0,0.24c0.64,0,1.28,0,1.92,0c0.32,0,0.64,0,0.96,0
				c0.16,0,0.32,0,0.48,0c0.08,0,0.16,0,0.24,0c0,0.64,0,1.28,0,1.92c0,0.32,0,0.64,0,0.96c0,0.32,0,0.64,0,0.96
				c0.32,0,0.64,0,0.96,0c0.16,0,0.32,0,0.48,0c0.08,0,0.16,0,0.24,0c0.16,0,0.32,0,0.48,0c0.16,0,0.32,0,0.48,0
				c0.16,0,0.32,0,0.48,0c0.08,0,0.16,0,0.24,0c0.16,0,0.32,0,0.48,0c0.08,0,0.16,0,0.24,0c0.16,0,0.32,0,0.48,0
				c0-0.64,0-1.28,0-1.92c0-0.32,0-0.64,0-0.96c0-0.16,0-0.32,0-0.48c0-0.08,0-0.16,0-0.24c0.32,0,0.64,0,0.96,0
				c0.16,0,0.32,0,0.48,0c0.08,0,0.16,0,0.24,0c0.16,0,0.32,0,0.48,0c0.08,0,0.16,0,0.24,0c0.16,0,0.32,0,0.48,0
				c0.08,0,0.16,0,0.24,0c0,2.56,0,5.12,0,7.68c0.32,0,0.64,0,0.96,0c0.16,0,0.32,0,0.48,0c0.08,0,0.16,0,0.24,0
				c0.16,0,0.32,0,0.48,0c0.16,0,0.32,0,0.48,0c0.08,0,0.16,0,0.24,0c0.32,0,0.64,0,0.96,0c0.16,0,0.32,0,0.48,0
				c0.32,0,0.64,0,0.96,0c0.16,0,0.32,0,0.48,0c0.08,0,0.16,0,0.24,0c0,0.16,0,0.32,0,0.48c0,0.16,0,0.32,0,0.48
				c0,0.08,0,0.16,0,0.24c0,0.32,0,0.64,0,0.96c0,0.64,0,1.28,0,1.92c0,0.08,0,0.16,0,0.24c0.32,0,0.64,0,0.96,0
				c0.16,0,0.32,0,0.48,0c0.08,0,0.16,0,0.24,0c0.16,0,0.32,0,0.48,0c0.16,0,0.32,0,0.48,0c0.16,0,0.32,0,0.48,0
				c0.08,0,0.16,0,0.24,0c0.16,0,0.32,0,0.48,0c0.08,0,0.16,0,0.24,0c0.16,0,0.32,0,0.48,0c0-0.16,0-0.32,0-0.48
				c0-0.16,0-0.32,0-0.48c0-0.08,0-0.16,0-0.24c0-0.32,0-0.64,0-0.96c0-0.16,0-0.32,0-0.48c0-0.08,0-0.16,0-0.24
				c0-0.16,0-0.32,0-0.48c0-0.32,0-0.64,0-0.96c0.16,0,0.32,0,0.48,0c0.32,0,0.64,0,0.96,0c0.16,0,0.32,0,0.48,0
				c0.08,0,0.16,0,0.24,0c0.16,0,0.32,0,0.48,0c0.16,0,0.32,0,0.48,0c0.08,0,0.16,0,0.24,0c0.16,0,0.32,0,0.48,0
				c0.08,0,0.16,0,0.24,0c0.16,0,0.32,0,0.48,0c0.32,0,0.64,0,0.96,0c0.16,0,0.32,0,0.48,0c0.08,0,0.16,0,0.24,0
				c0.16,0,0.32,0,0.48,0c0.32,0,0.64,0,0.96,0c0.16,0,0.32,0,0.48,0c0.08,0,0.16,0,0.24,0c0.16,0,0.32,0,0.48,0
				c0.08,0,0.16,0,0.24,0c0.16,0,0.32,0,0.48,0c0.32,0,0.64,0,0.96,0c0.16,0,0.32,0,0.48,0c0.08,0,0.16,0,0.24,0
				c0-0.16,0-0.32,0-0.48c0-0.08,0-0.16,0-0.24c0-0.32,0-0.64,0-0.96c0-0.32,0-0.64,0-0.96c0-0.32,0-0.64,0-0.96
				c0.64,0,1.28,0,1.92,0c0.32,0,0.64,0,0.96,0c0.32,0,0.64,0,0.96,0c0-0.32,0-0.64,0-0.96c0-0.32,0-0.64,0-0.96
				c0-0.16,0-0.32,0-0.48c0-0.08,0-0.16,0-0.24c0.16,0,0.32,0,0.48,0c0.16,0,0.32,0,0.48,0c0.08,0,0.16,0,0.24,0
				c0.32,0,0.64,0,0.96,0c0.32,0,0.64,0,0.96,0c0.32,0,0.64,0,0.96,0c0.08,0,0.16,0,0.24,0c0-0.32,0-0.64,0-0.96
				c0-0.32,0-0.64,0-0.96c0-0.16,0-0.32,0-0.48c0-0.32,0-0.64,0-0.96c0-0.16,0-0.32,0-0.48c0-0.32,0-0.64,0-0.96
				c0-0.16,0-0.32,0-0.48c0-0.08,0-0.16,0-0.24c0.32,0,0.64,0,0.96,0c0.16,0,0.32,0,0.48,0c0.08,0,0.16,0,0.24,0
				c0.16,0,0.32,0,0.48,0c0.08,0,0.16,0,0.24,0c0.16,0,0.32,0,0.48,0c0.08,0,0.16,0,0.24,0c0,0.16,0,0.32,0,0.48
				c0,0.16,0,0.32,0,0.48c0,0.08,0,0.16,0,0.24c0,0.32,0,0.64,0,0.96c0,0.16,0,0.32,0,0.48c0,0.08,0,0.16,0,0.24
				c0,0.16,0,0.32,0,0.48c0,0.08,0,0.16,0,0.24c0,0.16,0,0.32,0,0.48c0,0.08,0,0.16,0,0.24c0,0.16,0,0.32,0,0.48
				c0,0.16,0,0.32,0,0.48c0,0.32,0,0.64,0,0.96c0,0.64,0,1.28,0,1.92c-1.28,0-2.56,0-3.84,0c-0.08,0-0.16,0-0.24,0
				c0,0.32,0,0.64,0,0.96c0,0.32,0,0.64,0,0.96c0,0.32,0,0.64,0,0.96c0,0.16,0,0.32,0,0.48c0,0.08,0,0.16,0,0.24
				c0,0.16,0,0.32,0,0.48c0,0.08,0,0.16,0,0.24c0,0.16,0,0.32,0,0.48c0,0.08,0,0.16,0,0.24c0,0.16,0,0.32,0,0.48
				c0,0.08,0,0.16,0,0.24c0,0.32,0,0.64,0,0.96c0,0.32,0,0.64,0,0.96c-0.16,0-0.32,0-0.48,0c-0.16,0-0.32,0-0.48,0
				c-0.08,0-0.16,0-0.24,0c-0.32,0-0.64,0-0.96,0c-0.32,0-0.64,0-0.96,0c-0.16,0-0.32,0-0.48,0c-0.16,0-0.32,0-0.48,0
				c-0.08,0-0.16,0-0.24,0c0,0.32,0,0.64,0,0.96c0,0.32,0,0.64,0,0.96c0,0.16,0,0.32,0,0.48c0,0.16,0,0.32,0,0.48
				c0,0.16,0,0.32,0,0.48c0,0.08,0,0.16,0,0.24c0,0.16,0,0.32,0,0.48c0,0.08,0,0.16,0,0.24c0,0.16,0,0.32,0,0.48
				c0,0.08,0,0.16,0,0.24c0,0.16,0,0.32,0,0.48c0,0.16,0,0.32,0,0.48c0,0.08,0,0.16,0,0.24c0,0.16,0,0.32,0,0.48
				c0,0.16,0,0.32,0,0.48c0,0.16,0,0.32,0,0.48c0,0.16,0,0.32,0,0.48c0,0.08,0,0.16,0,0.24c0,0.16,0,0.32,0,0.48
				c0,0.08,0,0.16,0,0.24c0,0.16,0,0.32,0,0.48c-0.16,0-0.32,0-0.48,0c-0.16,0-0.32,0-0.48,0c-0.08,0-0.16,0-0.24,0
				c-0.16,0-0.32,0-0.48,0c-0.16,0-0.32,0-0.48,0c-0.08,0-0.16,0-0.24,0c-0.16,0-0.32,0-0.48,0c-0.08,0-0.16,0-0.24,0
				c-0.16,0-0.32,0-0.48,0c-0.32,0-0.64,0-0.96,0c-0.08,0-0.16,0-0.24,0c0,0.32,0,0.64,0,0.96c0,0.32,0,0.64,0,0.96
				c0,0.16,0,0.32,0,0.48c0,0.16,0,0.32,0,0.48c0,0.16,0,0.32,0,0.48c0,0.08,0,0.16,0,0.24c0,0.16,0,0.32,0,0.48
				c0,0.08,0,0.16,0,0.24c0,0.16,0,0.32,0,0.48c0.16,0,0.32,0,0.48,0c0.32,0,0.64,0,0.96,0c0.16,0,0.32,0,0.48,0
				c0.16,0,0.32,0,0.48,0c0.08,0,0.16,0,0.24,0c0.16,0,0.32,0,0.48,0c0.08,0,0.16,0,0.24,0c0.16,0,0.32,0,0.48,0
				c0.16,0,0.32,0,0.48,0c0.08,0,0.16,0,0.24,0c0.16,0,0.32,0,0.48,0c0,0.64,0,1.28,0,1.92c0,0.32,0,0.64,0,0.96
				c0,0.16,0,0.32,0,0.48c0,1.28,0,2.56,0,3.84c0,0.64,0,1.28,0,1.92c0,0.32,0,0.64,0,0.96c0,0.16,0,0.32,0,0.48
				c0,0.08,0,0.16,0,0.24c0,0.64,0,1.28,0,1.92c0,0.32,0,0.64,0,0.96c0,0.16,0,0.32,0,0.48c0,0.08,0,0.16,0,0.24
				c0.16,0,0.32,0,0.48,0c0.16,0,0.32,0,0.48,0c0.08,0,0.16,0,0.24,0c0.32,0,0.64,0,0.96,0c0.16,0,0.32,0,0.48,0
				c0.08,0,0.16,0,0.24,0c0.16,0,0.32,0,0.48,0c0.32,0,0.64,0,0.96,0c0,0.16,0,0.32,0,0.48c0,0.16,0,0.32,0,0.48
				c0,0.08,0,0.16,0,0.24c0,0.32,0,0.64,0,0.96c0,0.16,0,0.32,0,0.48c0,0.08,0,0.16,0,0.24c0,0.16,0,0.32,0,0.48
				c0,0.08,0,0.16,0,0.24c0,0.16,0,0.32,0,0.48c0,0.08,0,0.16,0,0.24c0,0.16,0,0.32,0,0.48c0,0.16,0,0.32,0,0.48
				c0,0.32,0,0.64,0,0.96c0,0.64,0,1.28,0,1.92c0,0.08,0,0.16,0,0.24c0.16,0,0.32,0,0.48,0c0.08,0,0.16,0,0.24,0
				c0.32,0,0.64,0,0.96,0c0.32,0,0.64,0,0.96,0c0.16,0,0.32,0,0.48,0c0.08,0,0.16,0,0.24,0c0,0.32,0,0.64,0,0.96
				c0,0.16,0,0.32,0,0.48c0,0.08,0,0.16,0,0.24c0,0.32,0,0.64,0,0.96c0,0.16,0,0.32,0,0.48c0,0.16,0,0.32,0,0.48
				c0,0.08,0,0.16,0,0.24c0,0.16,0,0.32,0,0.48c0,0.16,0,0.32,0,0.48c0,0.16,0,0.32,0,0.48c0,0.08,0,0.16,0,0.24
				c0,0.16,0,0.32,0,0.48c0,0.16,0,0.32,0,0.48c0,0.08,0,0.16,0,0.24c-0.32,0-0.64,0-0.96,0c-0.16,0-0.32,0-0.48,0
				c-0.08,0-0.16,0-0.24,0c-0.16,0-0.32,0-0.48,0c-0.08,0-0.16,0-0.24,0c-0.16,0-0.32,0-0.48,0c-0.08,0-0.16,0-0.24,0
				c0-0.64,0-1.28,0-1.92c0-0.64,0-1.28,0-1.92c0-0.08,0-0.16,0-0.24c-0.32,0-0.64,0-0.96,0s-0.64,0-0.96,0c-0.32,0-0.64,0-0.96,0
				c-0.16,0-0.32,0-0.48,0c-0.08,0-0.16,0-0.24,0c-0.16,0-0.32,0-0.48,0c-0.08,0-0.16,0-0.24,0c-0.16,0-0.32,0-0.48,0
				c-0.08,0-0.16,0-0.24,0c-0.16,0-0.32,0-0.48,0c-0.08,0-0.16,0-0.24,0c-0.32,0-0.64,0-0.96,0c-0.32,0-0.64,0-0.96,0
				c0-0.64,0-1.28,0-1.92c0-0.32,0-0.64,0-0.96c0-0.16,0-0.32,0-0.48c0-0.08,0-0.16,0-0.24c-0.16,0-0.32,0-0.48,0
				c-0.16,0-0.32,0-0.48,0c-0.08,0-0.16,0-0.24,0c-0.32,0-0.64,0-0.96,0c-0.64,0-1.28,0-1.92,0c0-0.64,0-1.28,0-1.92
				c0-0.32,0-0.64,0-0.96c0-0.16,0-0.32,0-0.48c0-0.08,0-0.16,0-0.24c-0.16,0-0.32,0-0.48,0c-0.16,0-0.32,0-0.48,0
				c-0.08,0-0.16,0-0.24,0c-0.32,0-0.64,0-0.96,0c-0.16,0-0.32,0-0.48,0c-0.08,0-0.16,0-0.24,0c-0.16,0-0.32,0-0.48,0
				c-0.08,0-0.16,0-0.24,0c-0.16,0-0.32,0-0.48,0c-0.08,0-0.16,0-0.24,0c-0.16,0-0.32,0-0.48,0c-0.16,0-0.32,0-0.48,0
				c-0.32,0-0.64,0-0.96,0c-0.64,0-1.28,0-1.92,0c0-0.16,0-0.32,0-0.48c0-0.16,0-0.32,0-0.48c0-0.08,0-0.16,0-0.24
				c0-0.32,0-0.64,0-0.96c0-0.32,0-0.64,0-0.96s0-0.64,0-0.96c0-0.08,0-0.16,0-0.24c-0.32,0-0.64,0-0.96,0c-0.32,0-0.64,0-0.96,0
				c-0.32,0-0.64,0-0.96,0c-0.32,0-0.64,0-0.96,0c0,0.32,0,0.64,0,0.96c0,0.16,0,0.32,0,0.48c0,0.16,0,0.32,0,0.48
				c0,0.08,0,0.16,0,0.24c0,0.16,0,0.32,0,0.48c0,0.16,0,0.32,0,0.48c0,0.08,0,0.16,0,0.24c-0.32,0-0.64,0-0.96,0
				c-0.16,0-0.32,0-0.48,0c-0.08,0-0.16,0-0.24,0c-0.32,0-0.64,0-0.96,0c-0.16,0-0.32,0-0.48,0c-0.32,0-0.64,0-0.96,0
				c-0.16,0-0.32,0-0.48,0c-0.08,0-0.16,0-0.24,0c-0.32,0-0.64,0-0.96,0c-0.16,0-0.32,0-0.48,0c-0.08,0-0.16,0-0.24,0
				c-0.32,0-0.64,0-0.96,0c-0.16,0-0.32,0-0.48,0c-0.08,0-0.16,0-0.24,0c-0.32,0-0.64,0-0.96,0c-0.16,0-0.32,0-0.48,0
				c-0.08,0-0.16,0-0.24,0c-0.32,0-0.64,0-0.96,0c-0.16,0-0.32,0-0.48,0c-0.32,0-0.64,0-0.96,0c-0.16,0-0.32,0-0.48,0
				c-0.08,0-0.16,0-0.24,0c0,0.16,0,0.32,0,0.48c0,0.16,0,0.32,0,0.48c0,0.08,0,0.16,0,0.24c0,0.16,0,0.32,0,0.48
				c0,0.16,0,0.32,0,0.48c0,0.08,0,0.16,0,0.24c0,0.16,0,0.32,0,0.48c0,0.08,0,0.16,0,0.24c0,0.16,0,0.32,0,0.48
				c0,0.16,0,0.32,0,0.48c0,0.08,0,0.16,0,0.24c0,0.16,0,0.32,0,0.48c-0.64,0-1.28,0-1.92,0c-0.32,0-0.64,0-0.96,0
				c-0.16,0-0.32,0-0.48,0c-0.16,0-0.32,0-0.48,0c-0.08,0-0.16,0-0.24,0c-0.16,0-0.32,0-0.48,0c-0.32,0-0.64,0-0.96,0
				c-0.32,0-0.64,0-0.96,0c-0.16,0-0.32,0-0.48,0c-0.08,0-0.16,0-0.24,0c0-1.28,0-2.56,0-3.84c1.28,0,2.56,0,3.84,0
				c0-0.32,0-0.64,0-0.96c0-0.16,0-0.32,0-0.48c0-0.08,0-0.16,0-0.24c0-0.32,0-0.64,0-0.96c0-0.16,0-0.32,0-0.48
				c0-0.64,0-1.28,0-1.92c0-0.32,0-0.64,0-0.96c0-0.16,0-0.32,0-0.48c0-0.08,0-0.16,0-0.24c0-0.32,0-0.64,0-0.96
				c0-0.16,0-0.32,0-0.48c0-0.08,0-0.16,0-0.24c0-0.32,0-0.64,0-0.96c0-0.16,0-0.32,0-0.48c0-0.08,0-0.16,0-0.24
				c0-0.32,0-0.64,0-0.96c0-0.16,0-0.32,0-0.48c0-0.16,0-0.32,0-0.48c0-0.08,0-0.16,0-0.24c0-0.16,0-0.32,0-0.48
				c0-0.16,0-0.32,0-0.48c0-0.08,0-0.16,0-0.24c0.64,0,1.28,0,1.92,0c0.32,0,0.64,0,0.96,0c0.32,0,0.64,0,0.96,0
				c0-0.32,0-0.64,0-0.96c0-0.32,0-0.64,0-0.96c0-0.16,0-0.32,0-0.48c0-0.16,0-0.32,0-0.48s0-0.32,0-0.48c0-0.08,0-0.16,0-0.24
				c0-0.32,0-0.64,0-0.96c0-0.16,0-0.32,0-0.48c-1.28,0-2.56,0-3.84,0c0-0.16,0-0.32,0-0.48c0-0.16,0-0.32,0-0.48
				c0-0.08,0-0.16,0-0.24c0-0.32,0-0.64,0-0.96c0-0.16,0-0.32,0-0.48c0-0.16,0-0.32,0-0.48c0-0.08,0-0.16,0-0.24
				c0-0.16,0-0.32,0-0.48c0-0.08,0-0.16,0-0.24c0-0.16,0-0.32,0-0.48c0-0.08,0-0.16,0-0.24c0-0.16,0-0.32,0-0.48
				c0-0.08,0-0.16,0-0.24c0-0.32,0-0.64,0-0.96c0-0.08,0-0.16,0-0.24c0-0.16,0-0.32,0-0.48c0-0.08,0-0.16,0-0.24
				c0-0.16,0-0.32,0-0.48c0-0.08,0-0.16,0-0.24c0-0.32,0-0.64,0-0.96c0-0.08,0-0.16,0-0.24c0-0.16,0-0.32,0-0.48
				c0-0.08,0-0.16,0-0.24c0-0.16,0-0.32,0-0.48c0-0.08,0-0.16,0-0.24c0-0.32,0-0.64,0-0.96c0-0.08,0-0.16,0-0.24
				c0-0.32,0-0.64,0-0.96c0-0.08,0-0.16,0-0.24c0-0.16,0-0.32,0-0.48c0-0.16,0-0.32,0-0.48c0-0.32,0-0.64,0-0.96
				c0-0.16,0-0.32,0-0.48c0-0.16,0-0.32,0-0.48c0-0.08,0-0.16,0-0.24c0-0.32,0-0.64,0-0.96c-0.16,0-0.32,0-0.48,0
				c-0.16,0-0.32,0-0.48,0c-0.08,0-0.16,0-0.24,0c-0.32,0-0.64,0-0.96,0c-0.64,0-1.28,0-1.92,0c0-0.16,0-0.32,0-0.48
				c0-0.16,0-0.32,0-0.48c0-0.08,0-0.16,0-0.24c0-0.32,0-0.64,0-0.96c0-0.16,0-0.32,0-0.48c0-0.16,0-0.32,0-0.48
				c0-0.08,0-0.16,0-0.24c0-0.32,0-0.64,0-0.96c0-0.16,0-0.32,0-0.48c0-0.08,0-0.16,0-0.24c0-0.16,0-0.32,0-0.48
				c0-0.32,0-0.64,0-0.96c0-0.64,0-1.28,0-1.92c0-0.08,0-0.16,0-0.24c-0.32,0-0.64,0-0.96,0c-0.32,0-0.64,0-0.96,0
				c-0.32,0-0.64,0-0.96,0c-0.32,0-0.64,0-0.96,0c0-0.64,0-1.28,0-1.92c0-0.32,0-0.64,0-0.96c0-0.16,0-0.32,0-0.48
				c0-0.64,0-1.28,0-1.92c0-0.32,0-0.64,0-0.96c0-0.16,0-0.32,0-0.48c0-0.08,0-0.16,0-0.24c0-0.16,0-0.32,0-0.48
				C46.61,21.75,46.53,21.75,46.45,21.75z M60.37,43.58c0,0.16,0,0.32,0,0.48c0,0.08,0,0.16,0,0.24c0,0.16,0,0.32,0,0.48
				c0,0.32,0,0.64,0,0.96c0,0.08,0,0.16,0,0.24c0,0.16,0,0.32,0,0.48c0,0.08,0,0.16,0,0.24c0,0.16,0,0.32,0,0.48
				c0,0.08,0,0.16,0,0.24c0,0.16,0,0.32,0,0.48c0,0.08,0,0.16,0,0.24c0,0.16,0,0.32,0,0.48c0,0.08,0,0.16,0,0.24
				c0,0.16,0,0.32,0,0.48c0,0.08,0,0.16,0,0.24c0,0.16,0,0.32,0,0.48c0,0.08,0,0.16,0,0.24c0,0.16,0,0.32,0,0.48
				c0,0.08,0,0.16,0,0.24c0,0.16,0,0.32,0,0.48c0.32,0,0.64,0,0.96,0c0.32,0,0.64,0,0.96,0c0.32,0,0.64,0,0.96,0
				c0.08,0,0.16,0,0.24,0c0.16,0,0.32,0,0.48,0c0,0.32,0,0.64,0,0.96c0,0.32,0,0.64,0,0.96c0,0.64,0,1.28,0,1.92
				c0.32,0,0.64,0,0.96,0c0.16,0,0.32,0,0.48,0c0.08,0,0.16,0,0.24,0c0.16,0,0.32,0,0.48,0c0.32,0,0.64,0,0.96,0
				c0.08,0,0.16,0,0.24,0c0.16,0,0.32,0,0.48,0c0.16,0,0.32,0,0.48,0c0,0.08,0,0.16,0,0.24c0,0.16,0,0.32,0,0.48
				c0,0.32,0,0.64,0,0.96c0,0.08,0,0.16,0,0.24c0,0.16,0,0.32,0,0.48c0,0.08,0,0.16,0,0.24c0,0.16,0,0.32,0,0.48
				c-0.08,0-0.16,0-0.24,0c-1.28,0-2.56,0-3.84,0c0,1.28,0,2.56,0,3.84c-0.08,0-0.16,0-0.24,0c-0.16,0-0.32,0-0.48,0
				c-0.32,0-0.64,0-0.96,0c-0.64,0-1.28,0-1.92,0c0,0.16,0,0.32,0,0.48c0,0.32,0,0.64,0,0.96c0,0.08,0,0.16,0,0.24
				c0,0.16,0,0.32,0,0.48c0,0.16,0,0.32,0,0.48c0,0.08,0,0.16,0,0.24c0,0.16,0,0.32,0,0.48c0,0.08,0,0.16,0,0.24
				c0,0.16,0,0.32,0,0.48c0,0.32,0,0.64,0,0.96c0,0.16,0,0.32,0,0.48c0.32,0,0.64,0,0.96,0c0.08,0,0.16,0,0.24,0
				c0.16,0,0.32,0,0.48,0c0.16,0,0.32,0,0.48,0c0.32,0,0.64,0,0.96,0c0.32,0,0.64,0,0.96,0c0.16,0,0.32,0,0.48,0
				c0.08,0,0.16,0,0.24,0c0.16,0,0.32,0,0.48,0c0.08,0,0.16,0,0.24,0c0.16,0,0.32,0,0.48,0c0.16,0,0.32,0,0.48,0
				c0.16,0,0.32,0,0.48,0c0.08,0,0.16,0,0.24,0c0.16,0,0.32,0,0.48,0c0.08,0,0.16,0,0.24,0c0.16,0,0.32,0,0.48,0
				c0.16,0,0.32,0,0.48,0c0-1.28,0-2.56,0-3.84c0-0.64,0-1.28,0-1.92c0-0.32,0-0.64,0-0.96c0-0.08,0-0.16,0-0.24
				c0-0.16,0-0.32,0-0.48c0-0.16,0-0.32,0-0.48c0.08,0,0.16,0,0.24,0c0.16,0,0.32,0,0.48,0c0.08,0,0.16,0,0.24,0
				c0.16,0,0.32,0,0.48,0c0.08,0,0.16,0,0.24,0c0.16,0,0.32,0,0.48,0c0.08,0,0.16,0,0.24,0c0.16,0,0.32,0,0.48,0
				c0,0.32,0,0.64,0,0.96c0,0.16,0,0.32,0,0.48c0,0.08,0,0.16,0,0.24c0,0.16,0,0.32,0,0.48c0,0.16,0,0.32,0,0.48
				c0,0.32,0,0.64,0,0.96c0.32,0,0.64,0,0.96,0c0.32,0,0.64,0,0.96,0c0.32,0,0.64,0,0.96,0c0.08,0,0.16,0,0.24,0
				c0.16,0,0.32,0,0.48,0c0,0.08,0,0.16,0,0.24c0,0.64,0,1.28,0,1.92c0,0.32,0,0.64,0,0.96c0,0.08,0,0.16,0,0.24
				c0,0.16,0,0.32,0,0.48c0,0.16,0,0.32,0,0.48c0.32,0,0.64,0,0.96,0c0.08,0,0.16,0,0.24,0c0.16,0,0.32,0,0.48,0
				c0.16,0,0.32,0,0.48,0c0.16,0,0.32,0,0.48,0c0.08,0,0.16,0,0.24,0c0.16,0,0.32,0,0.48,0c0.32,0,0.64,0,0.96,0
				c0.16,0,0.32,0,0.48,0c0.08,0,0.16,0,0.24,0c0.16,0,0.32,0,0.48,0c0.08,0,0.16,0,0.24,0c0.16,0,0.32,0,0.48,0
				c0.16,0,0.32,0,0.48,0c0.16,0,0.32,0,0.48,0c0.08,0,0.16,0,0.24,0c0.16,0,0.32,0,0.48,0c0.08,0,0.16,0,0.24,0
				c0.16,0,0.32,0,0.48,0c0.16,0,0.32,0,0.48,0c0-0.64,0-1.28,0-1.92c0-0.32,0-0.64,0-0.96c0-0.16,0-0.32,0-0.48
				c0-0.08,0-0.16,0-0.24c0-0.16,0-0.32,0-0.48c0-0.32,0-0.64,0-0.96c0-0.08,0-0.16,0-0.24c0-0.16,0-0.32,0-0.48
				c0-0.16,0-0.32,0-0.48c0-0.32,0-0.64,0-0.96c0-0.08,0-0.16,0-0.24c0-0.16,0-0.32,0-0.48c0-0.16,0-0.32,0-0.48
				c-1.28,0-2.56,0-3.84,0c0-1.28,0-2.56,0-3.84c-1.28,0-2.56,0-3.84,0c0-0.32,0-0.64,0-0.96c0-0.08,0-0.16,0-0.24
				c0-0.16,0-0.32,0-0.48c0-0.16,0-0.32,0-0.48c0-0.16,0-0.32,0-0.48c0-0.08,0-0.16,0-0.24c0-0.16,0-0.32,0-0.48
				c0-0.32,0-0.64,0-0.96c0.32,0,0.64,0,0.96,0c0.32,0,0.64,0,0.96,0c0.64,0,1.28,0,1.92,0c0-0.08,0-0.16,0-0.24
				c0-0.16,0-0.32,0-0.48c0-0.32,0-0.64,0-0.96c0-0.32,0-0.64,0-0.96c0-0.08,0-0.16,0-0.24c0-0.16,0-0.32,0-0.48
				c0.08,0,0.16,0,0.24,0c0.64,0,1.28,0,1.92,0c0.32,0,0.64,0,0.96,0c0.08,0,0.16,0,0.24,0c0.16,0,0.32,0,0.48,0
				c0.16,0,0.32,0,0.48,0c0-0.32,0-0.64,0-0.96c0-0.08,0-0.16,0-0.24c0-0.16,0-0.32,0-0.48c0-0.16,0-0.32,0-0.48
				c0-0.16,0-0.32,0-0.48c0-0.08,0-0.16,0-0.24c0-0.16,0-0.32,0-0.48c0-0.08,0-0.16,0-0.24c0-0.16,0-0.32,0-0.48
				c0-0.16,0-0.32,0-0.48c-0.16,0-0.32,0-0.48,0c-0.08,0-0.16,0-0.24,0c-0.16,0-0.32,0-0.48,0c-0.08,0-0.16,0-0.24,0
				c-0.16,0-0.32,0-0.48,0c-0.16,0-0.32,0-0.48,0c-0.16,0-0.32,0-0.48,0c-0.64,0-1.28,0-1.92,0c-0.32,0-0.64,0-0.96,0
				c-0.16,0-0.32,0-0.48,0c-0.08,0-0.16,0-0.24,0c-0.16,0-0.32,0-0.48,0c-0.16,0-0.32,0-0.48,0c-0.16,0-0.32,0-0.48,0
				c-0.08,0-0.16,0-0.24,0c-0.16,0-0.32,0-0.48,0c-0.32,0-0.64,0-0.96,0c-0.16,0-0.32,0-0.48,0c0,0.32,0,0.64,0,0.96
				c0,0.32,0,0.64,0,0.96c0,0.64,0,1.28,0,1.92c0,0.32,0,0.64,0,0.96c0,0.32,0,0.64,0,0.96c0,0.32,0,0.64,0,0.96
				c0,0.32,0,0.64,0,0.96c-0.08,0-0.16,0-0.24,0c-0.64,0-1.28,0-1.92,0c0-0.64,0-1.28,0-1.92c0-0.32,0-0.64,0-0.96
				c0-0.08,0-0.16,0-0.24c0-0.16,0-0.32,0-0.48c0-0.16,0-0.32,0-0.48c-0.32,0-0.64,0-0.96,0c-0.16,0-0.32,0-0.48,0
				c-0.08,0-0.16,0-0.24,0c-0.16,0-0.32,0-0.48,0c-0.32,0-0.64,0-0.96,0c-0.08,0-0.16,0-0.24,0c-0.16,0-0.32,0-0.48,0
				c-0.16,0-0.32,0-0.48,0c0-0.08,0-0.16,0-0.24c0-0.16,0-0.32,0-0.48c0-0.32,0-0.64,0-0.96c0-0.64,0-1.28,0-1.92
				c-0.64,0-1.28,0-1.92,0c-0.32,0-0.64,0-0.96,0c-0.16,0-0.32,0-0.48,0c-0.16,0-0.32,0-0.48,0c-0.08,0-0.16,0-0.24,0
				c-0.32,0-0.64,0-0.96,0c-0.08,0-0.16,0-0.24,0c-0.16,0-0.32,0-0.48,0c-0.16,0-0.32,0-0.48,0c-0.32,0-0.64,0-0.96,0
				c-0.08,0-0.16,0-0.24,0c-0.16,0-0.32,0-0.48,0c-0.08,0-0.16,0-0.24,0c-0.08,0-0.16,0-0.24,0c-0.08,0-0.16,0-0.24,0
				C60.37,43.42,60.37,43.5,60.37,43.58z"/>
		</g>
	</g>
</g>
</svg>
